<svg width="40" height="40" viewBox="0 0 40 40" fill="none" xmlns="http://www.w3.org/2000/svg">
<g clip-path="url(#clip0_2_3426)" filter="url(#filter0_d_2_3426)">
<path d="M19.208 0.175992L4.78134 6.91599C4.68378 6.96073 4.60113 7.03256 4.54324 7.12294C4.48534 7.21331 4.45463 7.31842 4.45477 7.42575C4.45491 7.53308 4.48589 7.63811 4.54403 7.72833C4.60216 7.81856 4.685 7.89017 4.78267 7.93466L19.3227 14.6253C19.752 14.8227 20.248 14.8227 20.6773 14.6253L35.2173 7.93466C35.3151 7.8903 35.398 7.81879 35.4563 7.72865C35.5145 7.6385 35.5456 7.53351 35.5459 7.42618C35.5462 7.31885 35.5156 7.2137 35.4578 7.12325C35.4001 7.0328 35.3175 6.96086 35.22 6.91599L20.792 0.175992C20.5441 0.0601174 20.2737 6.10352e-05 20 6.10352e-05C19.7263 6.10352e-05 19.456 0.0601174 19.208 0.175992Z" fill="#F53030"/>
<path opacity="0.64" d="M35.22 15.568L32.24 14.176C32.0266 14.0763 31.794 14.0243 31.5584 14.0236C31.3229 14.0229 31.09 14.0735 30.876 14.172L20.6773 18.8653C20.4649 18.963 20.2338 19.0136 20 19.0136C19.7662 19.0136 19.5351 18.963 19.3227 18.8653L9.12267 14.172C8.90885 14.0737 8.67621 14.0232 8.4409 14.0239C8.20559 14.0246 7.97324 14.0765 7.76001 14.176L4.78001 15.568C4.6825 15.6128 4.59995 15.6848 4.54217 15.7752C4.48439 15.8657 4.45382 15.9708 4.4541 16.0782C4.45438 16.1855 4.4855 16.2905 4.54375 16.3806C4.60201 16.4708 4.68494 16.5423 4.78267 16.5866L19.3227 23.276C19.535 23.3742 19.7661 23.4251 20 23.4251C20.2339 23.4251 20.465 23.3742 20.6773 23.276L35.2173 16.5866C35.3151 16.5423 35.398 16.4708 35.4563 16.3806C35.5145 16.2905 35.5456 16.1855 35.5459 16.0782C35.5462 15.9708 35.5156 15.8657 35.4578 15.7752C35.4001 15.6848 35.3175 15.6128 35.22 15.568Z" fill="#FFB1B1"/>
<path d="M35.22 24.144L32.24 22.752C32.0266 22.6522 31.794 22.6002 31.5585 22.5995C31.3229 22.5989 31.09 22.6495 30.876 22.748L20.6774 27.44C20.4649 27.5376 20.2338 27.5882 20 27.5882C19.7662 27.5882 19.5351 27.5376 19.3227 27.44L9.12269 22.7466C8.90887 22.6484 8.67623 22.5978 8.44091 22.5985C8.2056 22.5992 7.97326 22.6511 7.76002 22.7506L4.78002 24.144C4.68289 24.189 4.60071 24.2609 4.5432 24.3512C4.4857 24.4415 4.45529 24.5464 4.45557 24.6535C4.45585 24.7605 4.48681 24.8653 4.54479 24.9553C4.60277 25.0453 4.68532 25.1168 4.78269 25.1613L19.3227 31.852C19.752 32.0493 20.248 32.0493 20.6774 31.852L35.2174 25.1613C35.3147 25.1168 35.3973 25.0453 35.4553 24.9553C35.5132 24.8653 35.5442 24.7605 35.5445 24.6535C35.5448 24.5464 35.5143 24.4415 35.4568 24.3512C35.3993 24.2609 35.3172 24.189 35.22 24.144Z" fill="#CE2E2E"/>
</g>
<defs>
<filter id="filter0_d_2_3426" x="0" y="0" width="40" height="40" filterUnits="userSpaceOnUse" color-interpolation-filters="sRGB">
<feFlood flood-opacity="0" result="BackgroundImageFix"/>
<feColorMatrix in="SourceAlpha" type="matrix" values="0 0 0 0 0 0 0 0 0 0 0 0 0 0 0 0 0 0 127 0" result="hardAlpha"/>
<feOffset dy="4"/>
<feGaussianBlur stdDeviation="2"/>
<feComposite in2="hardAlpha" operator="out"/>
<feColorMatrix type="matrix" values="0 0 0 0 0 0 0 0 0 0 0 0 0 0 0 0 0 0 0.25 0"/>
<feBlend mode="normal" in2="BackgroundImageFix" result="effect1_dropShadow_2_3426"/>
<feBlend mode="normal" in="SourceGraphic" in2="effect1_dropShadow_2_3426" result="shape"/>
</filter>
<clipPath id="clip0_2_3426">
<rect width="32" height="32" fill="white" transform="translate(4)"/>
</clipPath>
</defs>
</svg>
