<svg width="48" height="48" viewBox="0 0 48 48" fill="none" xmlns="http://www.w3.org/2000/svg">
<path d="M20 21.3334H10.6667C10.3131 21.3334 9.97392 21.1929 9.72387 20.9429C9.47382 20.6928 9.33334 20.3537 9.33334 20V10.6667C9.33334 10.3131 9.47382 9.97395 9.72387 9.7239C9.97392 9.47385 10.3131 9.33337 10.6667 9.33337H20C20.3536 9.33337 20.6928 9.47385 20.9428 9.7239C21.1929 9.97395 21.3333 10.3131 21.3333 10.6667V20C21.3333 20.3537 21.1929 20.6928 20.9428 20.9429C20.6928 21.1929 20.3536 21.3334 20 21.3334Z" fill="#F53030"/>
<path d="M20 38.6667H10.6667C10.3131 38.6667 9.97392 38.5263 9.72387 38.2762C9.47382 38.0262 9.33334 37.687 9.33334 37.3334V28.0001C9.33334 27.6465 9.47382 27.3073 9.72387 27.0573C9.97392 26.8072 10.3131 26.6667 10.6667 26.6667H20C20.3536 26.6667 20.6928 26.8072 20.9428 27.0573C21.1929 27.3073 21.3333 27.6465 21.3333 28.0001V37.3334C21.3333 37.687 21.1929 38.0262 20.9428 38.2762C20.6928 38.5263 20.3536 38.6667 20 38.6667Z" fill="#F53030"/>
<path d="M25.3333 10.6667H38.6667V13.3334H25.3333V10.6667Z" fill="#CE2E2E"/>
<path d="M38.6667 28H25.3333V30.6667H38.6667V28Z" fill="#CE2E2E"/>
<path d="M38.6667 34.6667H25.3333V37.3334H38.6667V34.6667Z" fill="#FFB1B1"/>
<path d="M38.6667 17.3334H25.3333V20H38.6667V17.3334Z" fill="#FFB1B1"/>
</svg>
